<svg width="47" height="42" viewBox="0 0 47 42" fill="none" xmlns="http://www.w3.org/2000/svg">
<path d="M26.545 41.2499C25.6488 41.3136 24.0738 41.3924 23.1363 40.4737C22.6188 39.9674 22.4089 39.4537 22.3226 38.4787C22.1914 37.0349 23.1439 35.1749 24.5651 34.7549C25.5626 34.4624 27.1077 34.6462 27.7339 34.8562C29.5939 35.4712 30.1188 38.1261 29.2301 39.8549C28.6488 40.9836 27.025 41.2199 26.545 41.2537V41.2499Z" fill="#F7C3C5"/>
<path d="M22.3721 37.5669C24.7946 37.6119 27.2134 37.6419 29.6359 37.6532C29.5309 36.4082 28.8897 35.2382 27.7347 34.8557C27.1084 34.6494 25.5596 34.4619 24.5659 34.7544C23.4296 35.0882 22.5971 36.3407 22.3721 37.5669Z" fill="#F3A9AE"/>
<path d="M29.2311 39.8543C29.5273 39.2843 29.6624 38.6131 29.6511 37.9456C29.6361 37.2518 29.4599 36.5656 29.1187 36.0068C29.1187 36.0068 28.6087 36.1456 28.3987 36.5281C28.0912 37.0868 28.1099 37.9456 28.2374 38.5306C28.4624 39.5468 29.2274 39.8581 29.2274 39.8581L29.2311 39.8543Z" fill="#F2A1A6"/>
<path d="M34.3876 34.9273C35.1526 35.3586 36.5476 36.1536 36.5363 37.8636C36.5326 38.5086 36.3338 39.0861 36.0225 39.6823C35.85 40.0123 34.8751 41.2948 32.5201 41.2836C31.6276 41.2836 30.6376 41.0661 29.9176 40.5448C29.0326 39.9036 28.6539 38.7673 28.7851 37.7361C28.9614 36.3936 29.6325 35.5836 30.5925 35.1148C31.1213 34.8561 33.6227 34.4923 34.3914 34.9273H34.3876Z" fill="#F7C3C5"/>
<path d="M30.2623 37.6609C32.351 37.6684 34.4398 37.6534 36.5248 37.6271C36.4123 36.0821 35.1185 35.3396 34.3873 34.9271C33.6223 34.4959 31.1173 34.8559 30.5886 35.1146C29.6511 35.5721 28.9911 36.3596 28.7998 37.6459C29.2873 37.6459 29.7749 37.6571 30.2586 37.6571L30.2623 37.6609Z" fill="#F3A9AE"/>
<path d="M22.8292 16.2037C21.8992 14.8612 21.1079 13.1737 20.3392 11.7224C19.8292 10.7587 19.6154 9.47992 19.5029 8.40742C19.3267 6.69367 19.9529 3.98617 21.9329 3.58867C23.5942 3.25492 24.9555 4.04992 26.0167 5.26867C27.1567 6.58117 27.3179 8.36993 27.5354 10.0199C27.7867 11.9362 27.8018 14.1899 27.7118 16.1212C27.7118 16.1212 27.7118 16.7849 27.2805 17.2574C26.9318 17.6437 26.2418 17.8687 25.4693 17.7824C23.7443 17.5837 22.8254 16.2037 22.8254 16.2037H22.8292Z" fill="#F7C3C5"/>
<path d="M35.3805 16.9235C35.943 16.3835 36.6256 15.5435 37.0081 14.8722C38.0544 15.3372 39.288 15.4347 40.3943 15.2435C41.2455 15.0935 42.1456 14.4485 42.6256 13.7435C43.7394 12.1047 42.6367 9.61846 40.9042 8.87971C39.4717 8.26846 36.8955 7.79971 35.433 8.45971C34.0343 9.08971 32.8831 10.286 32.2606 11.6735C31.6381 13.0497 31.1619 14.5122 31.1169 16.0047C31.1169 16.0047 30.8917 16.9235 32.6392 17.366C34.3867 17.8085 35.3843 16.9235 35.3843 16.9235H35.3805Z" fill="#F7C3C5"/>
<path d="M41.1284 8.27256C41.0084 8.23881 40.8847 8.20881 40.7609 8.18256C39.4034 7.92381 37.3335 7.82631 35.586 8.10006C34.8997 8.47506 33.801 8.10381 33.3997 8.64006C32.7547 9.50256 33.4972 10.8301 34.0897 11.2688C35.0572 11.9888 36.4448 12.4126 37.7873 12.4913C38.5935 12.5401 39.411 12.5213 40.2173 12.3863C40.686 12.3076 41.1697 12.2363 41.6197 12.0901C43.9634 11.3326 42.2498 9.1238 41.1248 8.2688L41.1284 8.27256Z" fill="#F3A9AE"/>
<path d="M34.8228 3.46125C33.7766 4.9125 32.8915 6.03 32.194 7.29C31.6015 8.355 31.2528 9.28125 32.8165 9.94875C34.729 10.7662 37.069 11.025 39.2628 10.9875C40.2565 10.9687 41.4827 10.7587 42.4052 10.4925C43.5077 10.17 44.3853 9.885 44.3853 8.96625C44.3853 8.14125 43.2865 6.05625 42.4653 4.755C41.6815 3.51375 39.7203 0 38.5353 0C37.4853 0 35.5277 2.4975 34.8265 3.465L34.8228 3.46125Z" fill="#B4CB45"/>
<path d="M44.5951 36.5362C45.8701 36.36 45.7576 35.4562 45.8701 34.395C45.9901 33.2587 46.0913 32.115 45.9638 30.975C45.7651 29.2125 45.3751 27.4762 44.8839 25.7737C43.9689 22.5862 41.5539 20.1787 38.8914 18.3225C37.7401 17.52 36.3864 17.4487 35.1414 16.8037C34.0801 16.2525 33.1801 16.1812 31.9539 16.0725C29.3401 15.8437 26.5763 15.6075 24.0113 16.32C22.1738 16.83 20.4412 17.67 18.765 18.57C16.7212 19.6687 14.4263 21.6975 13.5263 23.8987C13.1363 24.8587 12.9864 25.86 12.5251 26.835C12.0639 27.81 11.7976 28.7925 11.7901 29.925C11.7826 31.5562 12.2813 33.5587 12.1688 35.1862C12.1388 35.6137 12.4689 35.9512 12.8064 36.2137C18.6226 36.3787 24.4425 36.5137 30.2625 36.5325C33.1388 36.5437 36.0188 36.525 38.895 36.465C40.1475 36.4387 41.3963 36.6262 42.6525 36.525C43.2788 36.4762 43.9763 36.615 44.5913 36.5287L44.5951 36.5362Z" fill="white"/>
<path d="M40.4315 34.4138C40.784 32.7826 40.5103 31.2076 40.2928 29.5651C40.1465 28.4476 39.6853 27.3301 39.2203 26.3063C38.9053 25.6201 38.084 25.0051 37.544 24.4688C36.8802 23.8088 35.8866 23.6851 35.1028 23.2201C34.8778 23.0851 34.6678 22.9238 34.4466 22.7813C33.5841 22.2226 32.564 21.9638 31.5515 21.8063C29.714 21.5213 27.8277 21.5476 25.9977 21.8776C24.4865 22.1513 22.7878 22.6276 21.5091 23.5126C19.4128 24.9638 17.294 27.2026 17.1365 29.9288C17.0203 31.9388 16.6452 34.4213 17.5902 36.3413C21.8127 36.4426 26.0353 36.5213 30.2578 36.5326C33.1341 36.5438 36.0141 36.5251 38.8903 36.4651C39.1566 36.4613 39.419 36.4651 39.6852 36.4726C39.9777 35.7938 40.3565 34.7363 40.4277 34.4063L40.4315 34.4138Z" fill="#DDF1FC"/>
<path d="M28.8178 17.1446C28.8403 17.6996 28.8591 18.2696 28.7466 18.7384C28.6829 18.9934 28.8403 19.2484 29.0916 19.3121C29.1291 19.3196 29.1667 19.3271 29.2042 19.3271C29.4179 19.3271 29.6091 19.1809 29.6616 18.9671C29.8078 18.3671 29.7854 17.7296 29.7592 17.1109C29.7442 16.6909 29.7292 16.2934 29.7667 15.9371C29.7667 15.9296 29.7667 15.9221 29.7667 15.9146C29.4517 15.8959 29.1403 15.8809 28.8253 15.8696C28.7841 16.2859 28.7992 16.7246 28.8142 17.1484L28.8178 17.1446Z" fill="#AABADC"/>
<path d="M19.7844 21.6262C19.8781 21.7537 20.0206 21.8212 20.1669 21.8212C20.2644 21.8212 20.362 21.7912 20.4445 21.7312C20.6545 21.5775 20.7031 21.2812 20.5494 21.0712L18.7495 18.585C18.4832 18.7275 18.2093 18.8887 17.9355 19.065C17.943 19.0762 17.9431 19.0875 17.9506 19.095L19.7807 21.6262H19.7844Z" fill="#AABADC"/>
<path d="M14.3912 29.9023C14.6387 29.9023 14.8448 29.711 14.8636 29.4598C14.8823 29.201 14.6836 28.9723 14.4249 28.9573C13.6636 28.9048 12.771 28.7698 11.9198 28.6348C11.8598 28.9385 11.8187 29.2498 11.8037 29.576C12.6662 29.7148 13.5736 29.8498 14.3648 29.906C14.3761 29.906 14.3874 29.906 14.3987 29.906L14.3912 29.9023Z" fill="#AABADC"/>
<path d="M38.734 22.0125C38.824 22.155 38.9777 22.23 39.1315 22.23C39.2177 22.23 39.3078 22.2038 39.3865 22.155C39.994 21.765 41.1003 21.2963 41.8165 21.0713C41.8878 21.0488 41.9479 21.0075 42.0004 20.955C41.7716 20.7113 41.5352 20.475 41.2877 20.25C40.5302 20.5087 39.5028 20.955 38.8728 21.36C38.6515 21.5025 38.5878 21.795 38.7303 22.0125H38.734Z" fill="#AABADC"/>
<path d="M42.8359 29.2271C42.5771 29.2271 42.3633 29.4371 42.3633 29.6958C42.3633 29.9583 42.5733 30.1721 42.832 30.1721L45.7833 30.187C45.8058 30.187 45.8245 30.1758 45.847 30.1758C45.802 29.8646 45.7533 29.5533 45.6971 29.2421L42.8359 29.2271Z" fill="#AABADC"/>
<path d="M25.1354 32.0546C24.7154 31.5409 24.4042 30.8996 24.4004 30.2246C24.3929 29.2909 25.1204 28.5071 25.9867 28.3346C26.8529 28.1621 27.423 28.5521 28.2667 28.5896C29.1855 28.6346 30.1005 28.5371 30.993 28.3159C31.863 28.1021 32.7704 28.6534 33.1454 29.4484C33.5354 30.2771 33.1717 31.3046 32.6955 32.0171C32.148 32.8271 31.2142 33.0821 30.3067 33.3371C28.7467 33.7759 26.2192 33.3746 25.1354 32.0509V32.0546Z" fill="#777B83"/>
<path d="M28.9313 34.0049C27.3675 34.0049 25.6463 33.4649 24.75 32.3699C24.3675 31.9012 23.91 31.1512 23.9025 30.2287C23.8912 29.0999 24.7461 28.0724 25.8899 27.8436C26.5236 27.7161 27.0301 27.8436 27.4763 27.9486C27.7501 28.0161 28.0049 28.0761 28.2937 28.0911C29.1412 28.1324 30.0112 28.0461 30.8812 27.8324C31.9349 27.5699 33.105 28.1774 33.6037 29.2386C34.2 30.5136 33.3787 31.9011 33.1125 32.2949C32.4712 33.2474 31.4101 33.5474 30.4763 33.8099C30.0076 33.9412 29.4824 34.0049 28.9349 34.0049H28.9313ZM25.5187 31.7399C26.4412 32.8687 28.7362 33.2624 30.1687 32.8612C31.0462 32.6174 31.8411 32.3924 32.2799 31.7399C32.6736 31.1512 32.9924 30.2999 32.6924 29.6624C32.3962 29.0324 31.7025 28.6537 31.11 28.7999C30.15 29.0362 29.1824 29.1299 28.2411 29.0849C27.8586 29.0661 27.5288 28.9874 27.2363 28.9162C26.8238 28.8149 26.4975 28.7362 26.0812 28.8187C25.41 28.9537 24.8888 29.5687 24.8925 30.2174C24.8963 30.8512 25.2336 31.3912 25.5149 31.7362L25.5187 31.7399Z" fill="#231815"/>
<path d="M21.9413 26.2834C21.2513 26.5609 21.1163 27.5096 21.5401 28.0534C22.2113 28.9046 23.4563 28.3759 23.5088 27.3859C23.5576 26.4634 22.7813 25.9459 21.9413 26.2834Z" fill="#231815"/>
<path d="M35.1217 26.7183C34.728 26.8758 34.4806 27.2208 34.4056 27.5883C34.2031 28.6308 35.5267 29.2533 36.2767 28.612C37.1992 27.8208 36.2655 26.257 35.1217 26.7183Z" fill="#231815"/>
<path d="M12.7086 18.9596C12.6824 18.9596 12.6562 18.9596 12.6299 18.9521C12.6037 18.9483 12.0188 18.8508 11.6175 18.7046C11.3588 18.6108 11.2275 18.3221 11.3213 18.0633C11.415 17.8046 11.7037 17.6733 11.9625 17.7671C12.2175 17.8608 12.6449 17.9433 12.7874 17.9658C13.0574 18.0108 13.2449 18.2658 13.1999 18.5358C13.1587 18.7796 12.9486 18.9558 12.7086 18.9558V18.9596Z" fill="#231815"/>
<path d="M14.6882 16.8526C14.5307 16.8526 14.3807 16.7813 14.2832 16.6426C13.9232 16.1401 13.6831 15.9076 13.5444 15.8063C13.3231 15.6413 13.2781 15.3301 13.4431 15.1088C13.6081 14.8876 13.9195 14.8426 14.1408 15.0076C14.4295 15.2251 14.7408 15.5701 15.0933 16.0651C15.2545 16.2901 15.202 16.6013 14.977 16.7588C14.8908 16.8226 14.7895 16.8526 14.6882 16.8526Z" fill="#231815"/>
<path d="M17.4631 15.686C17.4631 15.686 17.448 15.686 17.4405 15.686C17.1668 15.6748 16.953 15.4423 16.9643 15.1648C16.9718 14.9735 16.9381 14.7748 16.8594 14.5985C16.7506 14.3473 16.8593 14.051 17.1143 13.9423C17.3693 13.8335 17.6618 13.946 17.7705 14.1973C17.9093 14.5123 17.973 14.861 17.958 15.206C17.9468 15.4723 17.7255 15.6823 17.4592 15.6823L17.4631 15.686Z" fill="#231815"/>
<path d="M3.64437 36.2057C3.70812 36.3032 3.7906 36.3894 3.9106 36.4532C4.0681 36.5357 5.24191 35.7744 5.47066 35.6807C6.06691 35.4407 7.04185 35.0844 7.6531 34.8932C8.08435 34.7582 8.51566 34.7432 8.93941 34.5932C9.44191 34.4132 9.9893 34.3944 10.5143 34.3344C10.9868 34.2819 11.5494 34.3832 11.9806 34.1544C12.4719 33.8957 12.8994 33.5057 13.3607 33.1944C13.8144 32.8869 14.2944 32.6207 14.8081 32.4257C15.4944 32.1632 16.2069 31.9757 16.9082 31.7582C17.2307 31.6569 17.5007 31.5332 17.8382 31.5144C18.2169 31.4919 18.5394 31.5144 18.7982 31.2107C19.0532 30.9144 19.1057 30.5357 19.2032 30.1757C19.2632 29.9507 19.3231 29.7182 19.3006 29.4819C19.2744 29.2044 19.0606 28.9569 18.9518 28.7019C18.5881 27.7982 18.1494 27.0369 17.6657 26.1894C17.3769 25.6832 17.1593 25.1807 16.9268 24.6594C16.6681 24.0819 16.2594 23.5757 15.9932 22.9982C15.8394 22.6719 15.5356 21.9782 15.1456 21.9032C14.1743 21.7157 12.8881 21.5882 11.9806 22.0532C10.7731 22.6719 9.2918 22.8969 8.4518 24.0707C7.96055 24.7569 7.1993 24.2769 6.48305 24.4157C6.13055 24.4869 5.87188 24.4307 5.52688 24.4307C4.71313 24.4307 3.36311 24.8207 2.60561 25.1094C1.95311 25.3569 1.08689 25.6869 0.666889 26.2832C0.303139 26.8007 0.216831 27.4082 0.0443307 28.0007C-0.116919 28.5594 0.194455 28.9757 0.453205 29.4407C0.708205 29.8944 0.966853 30.3444 1.19185 30.8094C1.92685 32.3319 2.50432 33.9857 3.31807 35.4594C3.45307 35.7032 3.49811 35.9844 3.63686 36.2019L3.64437 36.2057Z" fill="#FEDA4F"/>
<path d="M12.528 33.8061L12.2167 32.5011C12.0779 31.9423 11.8793 31.4961 11.6655 31.0273C11.6655 31.0273 10.4092 28.3798 9.97418 27.5023C9.76793 27.0823 9.57666 26.6623 9.38916 26.2461C9.08916 25.5748 8.77428 24.8811 8.39178 24.2098C8.38428 24.1986 8.37676 24.1948 8.36926 24.1836C8.12551 24.4423 7.82934 24.4723 7.50684 24.4498C7.86684 25.0836 8.21923 25.9536 8.52673 26.6323C8.71798 27.0598 8.91302 27.4911 9.12677 27.9223C9.55802 28.7961 10.8068 31.4173 10.8068 31.4173C11.0093 31.8673 11.1854 32.2536 11.3017 32.7261L11.673 34.2673C11.7855 34.2448 11.8906 34.2111 11.9918 34.1548C12.1793 34.0536 12.3592 33.9336 12.5355 33.8061H12.528Z" fill="#F9BC24"/>
<path d="M19.2622 29.317C18.2572 29.3882 17.0009 29.7257 16.0822 30.0332C15.0322 30.382 14.0235 30.8807 13.1422 31.5557C12.9285 31.717 12.6923 31.8557 12.4748 32.017C12.1561 32.257 12.006 32.6095 11.5972 32.7257C11.151 32.8532 10.5622 32.797 10.0972 32.8045C9.5422 32.812 8.99108 32.8195 8.44358 32.9245C8.09858 32.992 7.75358 33.0782 7.41233 33.1645C6.97733 33.2732 6.16726 33.4832 5.74351 33.6295C5.43976 33.7345 4.80605 33.9407 4.5698 34.117C4.29605 33.6407 4.00342 33.1532 3.77842 32.6507C3.60967 32.2757 3.55725 31.8745 3.39225 31.4882C3.15225 30.9295 2.91592 30.352 2.55967 29.8532C2.23717 29.407 1.9973 29.0245 1.85105 28.4695C1.64855 27.7082 1.07471 26.872 0.823462 26.0957C0.767212 26.1557 0.714653 26.2157 0.669653 26.2795C0.305903 26.797 0.219778 27.4045 0.0472779 27.997C-0.113972 28.5557 0.197219 28.972 0.455969 29.437C0.710969 29.8907 0.9698 30.3407 1.1948 30.8057C1.9298 32.3282 2.50727 33.982 3.32102 35.4557C3.45602 35.6995 3.50106 35.9807 3.63981 36.1982C3.70356 36.2957 3.78604 36.382 3.90604 36.4457C4.06354 36.5282 5.23717 35.767 5.46592 35.6732C6.06217 35.4332 7.03729 35.077 7.64854 34.8857C8.07979 34.7507 8.51092 34.7357 8.93467 34.5857C9.43717 34.4057 9.98474 34.387 10.5097 34.327C10.9822 34.2745 11.5448 34.3757 11.976 34.147C12.4673 33.8882 12.8947 33.4982 13.3559 33.187C13.8059 32.8795 14.2898 32.6132 14.8036 32.4182C15.4898 32.1557 16.2022 31.9682 16.9034 31.7507C17.2259 31.6495 17.4959 31.5257 17.8334 31.507C18.2159 31.4845 18.5347 31.507 18.7934 31.2032C19.0484 30.907 19.101 30.5282 19.1985 30.1682C19.2585 29.9432 19.3186 29.7107 19.2961 29.4745C19.2886 29.4182 19.2734 29.362 19.2547 29.3095L19.2622 29.317Z" fill="#F9BC24"/>
<path d="M14.1108 26.7559C15.3483 27.8959 16.6532 29.2122 17.137 30.8659C17.2157 31.1359 17.7557 32.6697 17.0995 32.5197C16.8745 32.4672 16.5896 32.1409 16.3533 32.1747C16.1358 32.2047 16.0121 32.5534 15.9221 32.7184C15.7908 32.9547 15.7196 33.1384 15.4533 33.2734C14.9808 32.6772 14.8121 31.9459 14.5008 31.2709C14.2196 30.6597 13.7246 29.9622 13.3046 29.4334C12.8996 28.9197 12.3895 28.5222 12.0183 27.9672C11.6845 27.4647 11.1295 27.2209 10.6532 26.8647C10.327 26.6247 10.1282 26.3209 9.81699 26.0734C9.27324 25.6422 7.39086 24.6709 7.50711 24.4459C7.67211 24.3409 7.98329 24.2172 8.36954 24.1797C8.75204 24.2359 9.33321 24.3897 9.51321 24.4234C10.0307 24.5134 10.4809 24.7122 10.9759 24.8472C11.6171 25.0197 12.1496 25.4472 12.7346 25.7584C13.2296 26.0209 13.6907 26.3659 14.1145 26.7559H14.1108Z" fill="#EA5E60"/>
</svg>
